<svg width="24" height="24" viewBox="0 0 24 24" fill="none" xmlns="http://www.w3.org/2000/svg">
<path d="M12.5 7.75C12.5 7.19772 12.0523 6.75 11.5 6.75C10.9477 6.75 10.5 7.19772 10.5 7.75H12.5ZM11.5 12.361H10.5C10.5 12.6884 10.6602 12.995 10.9289 13.1819L11.5 12.361ZM13.5984 15.0389C14.0518 15.3543 14.675 15.2424 14.9904 14.7891C15.3058 14.3357 15.1939 13.7125 14.7406 13.3971L13.5984 15.0389ZM12 22.5C17.7988 22.5 22.5 17.7988 22.5 12H20.5C20.5 16.6942 16.6942 20.5 12 20.5V22.5ZM22.5 12C22.5 6.20122 17.7988 1.5 12 1.5V3.5C16.6942 3.5 20.5 7.30578 20.5 12H22.5ZM12 1.5C6.20122 1.5 1.5 6.20122 1.5 12H3.5C3.5 7.30578 7.30578 3.5 12 3.5V1.5ZM1.5 12C1.5 17.7988 6.20122 22.5 12 22.5V20.5C7.30578 20.5 3.5 16.6942 3.5 12H1.5ZM10.5 7.75V12.361H12.5V7.75H10.5ZM10.9289 13.1819L13.5984 15.0389L14.7406 13.3971L12.0711 11.5401L10.9289 13.1819Z" fill="black"/>
</svg>
