<svg width="24" height="24" viewBox="0 0 24 24" fill="none" xmlns="http://www.w3.org/2000/svg">
<path fill-rule="evenodd" clip-rule="evenodd" d="M12 1.5C16.4185 1.5 20 4.9985 20 9.314C20 11.0645 19.4105 12.6805 18.4155 13.983" stroke="black" stroke-width="2" stroke-linecap="round" stroke-linejoin="round"/>
<path fill-rule="evenodd" clip-rule="evenodd" d="M14.5 9.31396C14.5 10.6945 13.3805 11.814 12 11.814C10.6195 11.814 9.5 10.6945 9.5 9.31396C9.5 7.93346 10.6195 6.81396 12 6.81396C13.3805 6.81396 14.5 7.93346 14.5 9.31396Z" stroke="black" stroke-width="2" stroke-linecap="round" stroke-linejoin="round"/>
<path fill-rule="evenodd" clip-rule="evenodd" d="M12 22.5L18.4155 13.983Z" stroke="black" stroke-width="2" stroke-linecap="round" stroke-linejoin="round"/>
<path fill-rule="evenodd" clip-rule="evenodd" d="M12 1.5C7.5815 1.5 4 4.9985 4 9.314C4 11.0645 4.5895 12.6805 5.5845 13.983" stroke="black" stroke-width="2" stroke-linecap="round" stroke-linejoin="round"/>
<path fill-rule="evenodd" clip-rule="evenodd" d="M12 22.5L5.5845 13.983Z" stroke="black" stroke-width="2" stroke-linecap="round" stroke-linejoin="round"/>
</svg>
