<svg width="24" height="24" viewBox="0 0 24 24" fill="none" xmlns="http://www.w3.org/2000/svg">
<path d="M3 9.5H21M7 2.5V6.5M17 6.5V2.5M21.5 21C21.5 21.276 21.276 21.5 21 21.5H3C2.724 21.5 2.5 21.276 2.5 21V5C2.5 4.724 2.724 4.5 3 4.5H21C21.276 4.5 21.5 4.724 21.5 5V21Z" stroke="black" stroke-width="2" stroke-linecap="round"/>
<path d="M8 12.5H6V14.5H8V12.5Z" fill="black"/>
<path d="M13 12.5H11V14.5H13V12.5Z" fill="black"/>
<path d="M16 12.5H18V14.5H16V12.5Z" fill="black"/>
<path d="M8 16.5H6V18.5H8V16.5Z" fill="black"/>
<path d="M13 16.5H11V18.5H13V16.5Z" fill="black"/>
<path d="M16 16.5H18V18.5H16V16.5Z" fill="black"/>
</svg>
