<svg width="24" height="24" viewBox="0 0 24 24" fill="none" xmlns="http://www.w3.org/2000/svg">
<path d="M18.4642 21.5001H5.56915V23.5001H18.4642V21.5001ZM5.56915 21.5001C5.77328 21.5001 5.90545 21.5828 5.95186 21.6174C5.99951 21.6528 6.01225 21.6768 6.00506 21.666C6.00006 21.6585 5.99413 21.6465 5.99125 21.6383C5.9862 21.6239 6.00015 21.6538 6.00015 21.7251H4.00015C4.00015 22.1225 4.16178 22.5071 4.34187 22.7768C4.49118 23.0003 4.89438 23.5001 5.56915 23.5001V21.5001ZM6.00015 1.77513C6.00015 1.86086 5.9779 2.0396 5.84104 2.21815C5.7072 2.39278 5.545 2.46073 5.46867 2.48432C5.40141 2.5051 5.36471 2.50295 5.40158 2.50124C5.43844 2.49953 5.47514 2.50013 5.56915 2.50013V0.500132C5.5077 0.500132 5.16646 0.484402 4.87826 0.573447C4.69674 0.629532 4.44788 0.74811 4.25368 1.00149C4.05646 1.25879 4.00015 1.5444 4.00015 1.77513H6.00015ZM5.56915 2.50013H18.4642V0.500132H5.56915V2.50013ZM18.4642 2.50013C18.5594 2.50013 18.5921 2.49956 18.6243 2.50113C18.657 2.50272 18.6069 2.50431 18.5255 2.47701C18.4276 2.44419 18.2612 2.36119 18.1342 2.17657C18.0127 1.99995 18.0002 1.83562 18.0002 1.77513H20.0002C20.0002 1.56964 19.9577 1.29844 19.782 1.04307C19.6008 0.779701 19.356 0.64607 19.1612 0.58075C18.9829 0.520951 18.8173 0.508164 18.7216 0.503504C18.6256 0.498826 18.5172 0.500132 18.4642 0.500132V2.50013ZM18.0002 1.77513V21.7251H20.0002V1.77513H18.0002ZM18.0002 21.7251C18.0002 21.6709 18.0092 21.6524 18.004 21.669C18.0003 21.681 17.9945 21.6927 17.9917 21.6972C17.9865 21.7056 18.0031 21.6741 18.0582 21.6311C18.1152 21.5867 18.2551 21.5001 18.4642 21.5001V23.5001C19.16 23.5001 19.5543 22.9741 19.695 22.7455C19.8672 22.4656 20.0002 22.0926 20.0002 21.7251H18.0002ZM5 17.5001H19V15.5001H5V17.5001ZM19 4.00013H5V6.00013H19V4.00013ZM6.00015 21.7251V1.77513H4.00015V21.7251H6.00015Z" fill="black"/>
<path fill-rule="evenodd" clip-rule="evenodd" d="M12 18.5C11.4477 18.5 11 18.9475 11 19.5C11 20.052 11.4477 20.5 12 20.5C12.5523 20.5 13 20.052 13 19.5C13 18.9475 12.5523 18.5 12 18.5Z" fill="black"/>
</svg>
